<?xml version="1.0" encoding="UTF-8"?>
<svg xmlns="http://www.w3.org/2000/svg" width="720" height="420" viewBox="0 0 720 420">
  <rect width="720" height="420" fill="white"/>

  <text x="380" y="18" text-anchor="middle" font-size="16">
    Single agent: compounding variance
  </text>

  <!-- Axes -->
  <line x1="64" y1="372" x2="696" y2="372" stroke="black" stroke-width="2"/>
  <line x1="64" y1="372" x2="64" y2="24" stroke="black" stroke-width="2"/>

  <!-- X ticks (0–5 tasks) -->
  <line x1="64" y1="372" x2="64" y2="378" stroke="black"/>
  <text x="64" y="394" text-anchor="middle" font-size="12">0</text>
  <line x1="190.4" y1="372" x2="190.4" y2="378" stroke="black"/>
  <text x="190.4" y="394" text-anchor="middle" font-size="12">1</text>
  <line x1="316.8" y1="372" x2="316.8" y2="378" stroke="black"/>
  <text x="316.8" y="394" text-anchor="middle" font-size="12">2</text>
  <line x1="443.2" y1="372" x2="443.2" y2="378" stroke="black"/>
  <text x="443.2" y="394" text-anchor="middle" font-size="12">3</text>
  <line x1="569.6" y1="372" x2="569.6" y2="378" stroke="black"/>
  <text x="569.6" y="394" text-anchor="middle" font-size="12">4</text>
  <line x1="696" y1="372" x2="696" y2="378" stroke="black"/>
  <text x="696" y="394" text-anchor="middle" font-size="12">5</text>

  <!-- Y ticks (±0.8) -->
  <line x1="64" y1="372" x2="58" y2="372" stroke="black"/>
  <text x="54" y="376" text-anchor="end" font-size="12">-0.8</text>

  <line x1="64" y1="285" x2="58" y2="285" stroke="black"/>
  <text x="54" y="289" text-anchor="end" font-size="12">-0.4</text>

  <line x1="64" y1="198" x2="58" y2="198" stroke="black"/>
  <text x="54" y="202" text-anchor="end" font-size="12">0</text>

  <line x1="64" y1="111" x2="58" y2="111" stroke="black"/>
  <text x="54" y="115" text-anchor="end" font-size="12">0.4</text>

  <line x1="64" y1="24" x2="58" y2="24" stroke="black"/>
  <text x="54" y="28" text-anchor="end" font-size="12">0.8</text>

  <!-- Axis labels -->
  <text x="380" y="406" text-anchor="middle" font-size="14">Tasks</text>
  <text x="18" y="198" text-anchor="middle" font-size="14"
        transform="rotate(-90 18 198)">
    Deviation from plan
  </text>

  <!-- Variance cone: deviation = 1 - v^t (v=0.9, 10% per task). ±0.10, 0.19, 0.27, 0.34, 0.41 at t=1..5. -->
  <path
    d="M 64 198 L 190.4 176.25 L 316.8 156.68 L 443.2 139.06 L 569.6 123.18 L 696 108.93
       L 696 287.07 L 569.6 272.82 L 443.2 256.94 L 316.8 239.32 L 190.4 219.75 L 64 198 Z"
    fill="black"
    fill-opacity="0.08"
  />

  <!-- Baseline -->
  <line x1="64" y1="198" x2="696" y2="198"
        stroke="black" stroke-width="2" stroke-dasharray="6 6"/>
  <text x="690" y="188" text-anchor="end" font-size="12">
    On track (0 deviation)
  </text>

  <text x="455" y="150" font-size="13" fill="black" fill-opacity="0.7">
    Task variance (compounding)
  </text>
</svg>
